HIERARCHY
ROOT Hips
{
	OFFSET 0.000000 0.000000 0.000000
	CHANNELS 6 Xposition Yposition Zposition Zrotation Yrotation Xrotation 
	JOINT LHipJoint
	{
		OFFSET 0.000000 0.000000 0.000000
		CHANNELS 3 Zrotation Yrotation Xrotation
		JOINT LeftUpLeg
		{
			OFFSET 1.363060 -1.794630 0.839290
			CHANNELS 3 Zrotation Yrotation Xrotation
			JOINT LeftLeg
			{
				OFFSET 2.448110 -6.726130 0.000000
				CHANNELS 3 Zrotation Yrotation Xrotation
				JOINT LeftFoot
				{
					OFFSET 2.562200 -7.039590 0.000000
					CHANNELS 3 Zrotation Yrotation Xrotation
					JOINT LeftToeBase
					{
						OFFSET 0.157640 -0.433110 2.322550
						CHANNELS 3 Zrotation Yrotation Xrotation
						End Site
						{
							OFFSET 0.000000 0.000000 0.000000
						}
					}
				}
			}
		}
	}
	JOINT RHipJoint
	{
		OFFSET 0.000000 0.000000 0.000000
		CHANNELS 3 Zrotation Yrotation Xrotation
		JOINT RightUpLeg
		{
			OFFSET -1.305520 -1.794630 0.839290
			CHANNELS 3 Zrotation Yrotation Xrotation
			JOINT RightLeg
			{
				OFFSET -2.542530 -6.985550 0.000000
				CHANNELS 3 Zrotation Yrotation Xrotation
				JOINT RightFoot
				{
					OFFSET -2.568260 -7.056230 0.000000
					CHANNELS 3 Zrotation Yrotation Xrotation
					JOINT RightToeBase
					{
						OFFSET -0.164730 -0.452590 2.363150
						CHANNELS 3 Zrotation Yrotation Xrotation
						End Site
						{
							OFFSET 0.000000 0.000000 0.000000
						}
					}
				}
			}
		}
	}
}
MOTION
Frames: 11
Frame Time: 0.008333
3.920106 15.966225 -3.304164 -169.958434 62.132684 -143.810563 -10.276607 -2.616204 -2.504793 -18.274886 9.016117 -69.901288 -2.145429 4.268642 48.321430 4.325999 17.205641 -17.635001 -2.092200 0.000000 -2.108000 8.796205 -0.064243 -6.357651 4.547656 -18.126281 -38.382796 0.520446 -5.003634 59.734108 0.271444 7.741251 9.703058 2.236800 -0.000001 -92.528600
3.994636 15.926698 -3.415655 -169.450316 62.003635 -143.756046 -10.327239 -2.669778 -2.618239 -17.957221 9.235665 -69.786094 -2.013273 4.412753 50.035608 4.326201 17.246349 -18.438040 -2.397500 0.000000 -1.452100 8.863668 -0.076948 -6.359755 4.039530 -18.303795 -37.860792 0.432300 -5.013744 60.245906 0.281714 8.684754 11.048559 2.713200 -0.000000 -93.560900
4.069143 15.889718 -3.525119 -169.048636 61.818583 -143.783456 -10.371715 -2.709623 -2.729971 -17.702619 9.413849 -69.606447 -1.894021 4.537174 51.631565 4.342427 17.333860 -19.330383 -2.738001 -0.000000 -1.108800 8.931803 -0.085230 -6.355393 3.511520 -18.450092 -37.336544 0.347717 -5.020187 60.734453 0.279117 9.599109 12.383811 3.220200 -0.000000 -94.305500
4.143496 15.855597 -3.632970 -168.739944 61.575509 -143.876070 -10.412652 -2.737023 -2.834901 -17.494516 9.541504 -69.354110 -1.788054 4.639248 53.078912 4.372936 17.462716 -20.284208 -3.105700 0.000000 -1.043300 8.998033 -0.090867 -6.345831 2.979953 -18.563838 -36.813739 0.267606 -5.022593 61.194523 0.264266 10.462598 13.701140 3.746300 0.000000 -94.875200
4.217611 15.824553 -3.739510 -168.510174 61.275636 -144.017597 -10.452518 -2.753655 -2.928575 -17.315512 9.612053 -69.026618 -1.695079 4.718048 54.361217 4.414873 17.623555 -21.270597 -3.491900 -0.000001 -1.189400 9.060279 -0.095725 -6.331918 2.461588 -18.642005 -36.297059 0.191896 -5.020846 61.628250 0.238268 11.254957 14.990708 4.278300 0.000000 -95.177500
4.291374 15.796607 -3.845053 -168.342908 60.921950 -144.190445 -10.493647 -2.761702 -3.007472 -17.148586 9.620629 -68.626446 -1.613933 4.773998 55.475218 4.464668 17.804749 -22.261400 -3.886599 -0.000000 -1.469000 9.116784 -0.101334 -6.314176 1.971420 -18.680848 -35.792487 0.119970 -5.014997 62.040854 0.202309 11.957072 16.245440 4.801300 -0.000000 -95.135701
4.364634 15.771700 -3.949958 -168.222915 60.517702 -144.379989 -10.537686 -2.763290 -3.069583 -16.980783 9.563822 -68.158202 -1.542805 4.808329 56.428217 4.518579 17.994697 -23.231738 -4.280000 0.000001 -1.793900 9.166256 -0.108361 -6.293231 1.520958 -18.681486 -35.303414 0.051801 -5.004368 62.425258 0.156238 12.549242 17.484809 5.305000 0.000000 -95.021700
4.437352 15.749732 -4.054277 -168.139629 60.069719 -144.575862 -10.585599 -2.760341 -3.113776 -16.801659 9.441504 -67.631789 -1.479647 4.823423 57.235532 4.573162 18.183218 -24.160553 -4.662800 -0.000000 -2.086700 9.208328 -0.117532 -6.269002 1.119842 -18.639237 -34.836193 -0.013983 -4.989492 62.794216 0.101367 13.019830 18.701315 5.775300 0.000000 -94.648900
4.509348 15.730469 -4.158194 -168.079045 59.582982 -144.765483 -10.638025 -2.754735 -3.139804 -16.605131 9.255526 -67.060041 -1.421987 4.822074 57.918826 4.625648 18.362722 -25.032460 -5.027400 0.000000 -2.284700 9.242675 -0.129171 -6.240928 0.774867 -18.552051 -34.397399 -0.078115 -4.970528 63.153076 0.038087 13.359086 19.903547 6.201700 0.000000 -93.991100
4.580544 15.713784 -4.261688 -168.036943 59.063652 -144.946269 -10.694402 -2.747624 -3.149130 -16.390507 9.010239 -66.454831 -1.367882 4.807254 58.500750 4.674044 18.528466 -25.838487 -5.368500 -0.000000 -2.352400 9.269774 -0.142651 -6.209044 0.488262 -18.421551 -33.990333 -0.140744 -4.947531 63.501384 -0.033772 13.557571 21.104722 6.574900 -0.000000 -93.242600
4.650839 15.699520 -4.364633 -168.007870 58.517406 -145.114315 -10.753977 -2.739694 -3.143533 -16.160485 8.712912 -65.829925 -1.315703 4.782099 59.004068 4.717133 18.677954 -26.574382 -5.683100 -0.000000 -2.284900 9.290588 -0.157814 -6.172844 0.260116 -18.246322 -33.621399 -0.202899 -4.921834 63.855028 -0.112863 13.616094 22.292625 6.883799 -0.000000 -91.990600
